<?xml version="1.0" encoding="utf-8"?>
<!-- Generator: Adobe Illustrator 21.0.0, SVG Export Plug-In . SVG Version: 6.00 Build 0)  -->
<svg version="1.1" id="Layer_1" xmlns="http://www.w3.org/2000/svg" xmlns:xlink="http://www.w3.org/1999/xlink" x="0px" y="0px"
	 viewBox="0 0 128 128" style="enable-background:new 0 0 128 128;" xml:space="preserve">
<style type="text/css">
	.st0{fill:#CFF1FB;}
	.st1{fill:#91DEF5;}
	.st2{fill:#F6F7F7;}
	.st3{fill:#FFCFB8;}
	.st4{fill:#FFA77B;}
	.st5{fill:#E9EAEB;}
	.st6{fill:#746887;}
	.st7{fill:#F98770;}
	.st8{fill:#9B9B9B;}
	.st9{fill:#FFDDCF;}
	.st10{fill:#FFFFFF;}
	.st11{fill:#B7B7B7;}
	.st12{fill:#FFBC99;}
	.st13{fill:#DBDCDE;}
	.st14{fill:#FECFBA;}
	.st15{fill:#D0F1FA;}
	.st16{fill:#FDA77F;}
	.st17{fill:#94DEF4;}
</style>
<g>
	<g>
		<ellipse class="st3" cx="25.31" cy="35.825" rx="12.153" ry="12.171"/>
		<ellipse class="st3" cx="102.69" cy="92.175" rx="12.153" ry="12.171"/>
		<ellipse class="st2" cx="25.31" cy="35.825" rx="5.869" ry="5.878"/>
		<ellipse class="st2" cx="102.69" cy="92.175" rx="5.869" ry="5.878"/>
		<path class="st0" d="M107.288,46.287c0-2.543-2.058-4.604-4.597-4.604s-4.597,2.061-4.597,4.604v11.755h-7.361l11.958,15.967
			l11.958-15.967h-7.361V46.287z"/>
		<path class="st0" d="M13.352,69.958h7.361v11.755c0,2.543,2.058,4.604,4.597,4.604s4.597-2.061,4.597-4.604V69.958h7.361
			L25.31,53.992L13.352,69.958z"/>
	</g>
	<g>
		<path class="st7" d="M29.442,22.793c-0.791-0.253-1.633,0.186-1.883,0.977c-0.25,0.791,0.186,1.635,0.976,1.886
			c4.443,1.412,7.428,5.499,7.428,10.169c0,5.882-4.779,10.668-10.653,10.668s-10.653-4.786-10.653-10.668
			c0-4.547,2.89-8.598,7.19-10.081c0.783-0.27,1.2-1.125,0.93-1.909c-0.269-0.783-1.122-1.201-1.907-0.931
			c-5.511,1.899-9.214,7.091-9.214,12.921c0,7.539,6.125,13.673,13.653,13.673s13.653-6.134,13.653-13.673
			C38.963,29.84,35.137,24.603,29.442,22.793z"/>
		<path class="st7" d="M102.69,78.502c-7.528,0-13.653,6.134-13.653,13.673c0,5.946,3.795,11.171,9.443,13.004
			c0.153,0.05,0.309,0.073,0.462,0.073c0.633,0,1.222-0.404,1.427-1.04c0.256-0.789-0.177-1.636-0.965-1.891
			c-4.406-1.43-7.367-5.508-7.367-10.146c0-5.882,4.779-10.668,10.653-10.668s10.653,4.786,10.653,10.668
			c0,4.585-2.92,8.646-7.265,10.108c-0.785,0.264-1.208,1.116-0.944,1.902c0.264,0.786,1.115,1.213,1.899,0.946
			c5.568-1.873,9.31-7.079,9.31-12.956C116.344,84.636,110.219,78.502,102.69,78.502z"/>
		<path class="st7" d="M126.5,62.498h-16.313c-0.828,0-1.5,0.673-1.5,1.502c0,0.829,0.672,1.502,1.5,1.502H126.5
			c0.828,0,1.5-0.673,1.5-1.502C128,63.171,127.328,62.498,126.5,62.498z"/>
		<path class="st7" d="M95.195,62.498h-62.39c-0.829,0-1.5,0.673-1.5,1.502c0,0.829,0.671,1.502,1.5,1.502h62.39
			c0.828,0,1.5-0.673,1.5-1.502C96.695,63.171,96.023,62.498,95.195,62.498z"/>
		<path class="st7" d="M17.814,62.498H1.5C0.671,62.498,0,63.171,0,64c0,0.829,0.671,1.502,1.5,1.502h16.314
			c0.829,0,1.5-0.673,1.5-1.502C19.314,63.171,18.643,62.498,17.814,62.498z"/>
		<path class="st6" d="M19.042,35.278C8.638,38.675,6.091,49.724,5.987,50.192c-0.178,0.809,0.332,1.608,1.139,1.789
			c0.11,0.024,0.219,0.036,0.327,0.036c0.687,0,1.306-0.476,1.463-1.175c0.022-0.098,2.306-9.852,11.056-12.709
			c0.788-0.257,1.218-1.105,0.961-1.893C20.676,35.45,19.828,35.017,19.042,35.278z"/>
		<path class="st6" d="M97.341,89.812c-9.951-3.09-20.116-13.923-29.084-23.481c-1.073-1.143-2.13-2.27-3.17-3.365
			c-1.035-1.09-2.086-2.212-3.154-3.349c-9.223-9.831-19.677-20.973-30.384-24.297c-0.792-0.247-1.632,0.198-1.877,0.99
			c-0.246,0.792,0.197,1.634,0.988,1.88c9.95,3.089,20.114,13.921,29.082,23.478c1.073,1.144,2.131,2.271,3.171,3.367
			c1.034,1.089,2.085,2.21,3.152,3.348c9.225,9.831,19.679,20.975,30.388,24.3c0.148,0.046,0.298,0.067,0.444,0.067
			c0.641,0,1.233-0.413,1.433-1.057C98.574,90.9,98.132,90.058,97.341,89.812z"/>
		<path class="st6" d="M120.871,76.017c-0.809-0.173-1.609,0.334-1.788,1.143c-0.021,0.098-2.263,9.83-11.049,12.704
			c-0.787,0.257-1.217,1.105-0.96,1.894c0.206,0.634,0.794,1.036,1.426,1.036c0.154,0,0.311-0.023,0.466-0.074
			c10.396-3.399,12.943-14.443,13.047-14.912C122.191,76.998,121.681,76.196,120.871,76.017z"/>
		<path class="st6" d="M25.31,28.445c-4.063,0-7.369,3.311-7.369,7.381s3.306,7.38,7.369,7.38s7.369-3.31,7.369-7.38
			S29.373,28.445,25.31,28.445z M25.31,40.201c-2.409,0-4.369-1.963-4.369-4.375c0-2.414,1.96-4.376,4.369-4.376
			s4.369,1.963,4.369,4.376C29.679,38.238,27.719,40.201,25.31,40.201z"/>
		<path class="st6" d="M102.69,84.795c-4.063,0-7.369,3.31-7.369,7.38c0,4.069,3.306,7.381,7.369,7.381s7.369-3.311,7.369-7.381
			C110.06,88.106,106.754,84.795,102.69,84.795z M102.69,96.551c-2.409,0-4.369-1.963-4.369-4.376c0-2.413,1.96-4.375,4.369-4.375
			s4.369,1.963,4.369,4.375C107.06,94.588,105.1,96.551,102.69,96.551z"/>
		<path class="st6" d="M114.648,56.54h-5.86V46.286c0-3.366-2.735-6.105-6.098-6.105c-3.361,0-6.097,2.739-6.097,6.105V56.54h-5.861
			c-0.568,0-1.088,0.322-1.342,0.83c-0.254,0.509-0.199,1.118,0.142,1.574L101.49,74.91c0.283,0.377,0.729,0.6,1.2,0.6
			s0.917-0.223,1.2-0.6l11.958-15.966c0.341-0.456,0.396-1.065,0.142-1.574C115.736,56.862,115.217,56.54,114.648,56.54z
			 M102.69,71.505l-8.958-11.96h4.361c0.828,0,1.5-0.673,1.5-1.502V46.286c0-1.709,1.39-3.101,3.097-3.101
			c1.708,0,3.098,1.392,3.098,3.101v11.756c0,0.829,0.672,1.502,1.5,1.502h4.36L102.69,71.505z"/>
		<path class="st6" d="M26.51,53.09c-0.567-0.755-1.833-0.755-2.4,0L12.151,69.056c-0.341,0.456-0.396,1.065-0.142,1.574
			c0.254,0.509,0.773,0.83,1.342,0.83h5.861v10.254c0,3.366,2.735,6.105,6.097,6.105s6.097-2.739,6.097-6.105V71.46h5.861
			c0.568,0,1.087-0.322,1.342-0.83c0.254-0.509,0.199-1.118-0.142-1.574L26.51,53.09z M29.907,68.456c-0.829,0-1.5,0.673-1.5,1.502
			v11.756c0,1.709-1.389,3.101-3.097,3.101s-3.097-1.392-3.097-3.101V69.958c0-0.829-0.671-1.502-1.5-1.502h-4.361l8.958-11.96
			l8.958,11.96H29.907z"/>
		<path class="st7" d="M25.31,90.776c-0.829,0-1.5,0.673-1.5,1.502v3.555c0,0.829,0.671,1.502,1.5,1.502s1.5-0.673,1.5-1.502v-3.555
			C26.81,91.449,26.138,90.776,25.31,90.776z"/>
		<path class="st7" d="M25.31,101.441c-0.829,0-1.5,0.673-1.5,1.502v3.555c0,0.829,0.671,1.502,1.5,1.502s1.5-0.673,1.5-1.502
			v-3.555C26.81,102.114,26.138,101.441,25.31,101.441z"/>
		<path class="st7" d="M102.69,20c-0.828,0-1.5,0.673-1.5,1.502v3.555c0,0.829,0.672,1.502,1.5,1.502s1.5-0.673,1.5-1.502v-3.555
			C104.19,20.673,103.519,20,102.69,20z"/>
		<path class="st7" d="M102.69,30.665c-0.828,0-1.5,0.673-1.5,1.502v3.555c0,0.829,0.672,1.502,1.5,1.502s1.5-0.673,1.5-1.502
			v-3.555C104.19,31.337,103.519,30.665,102.69,30.665z"/>
	</g>
</g>
<g>
</g>
</svg>
