<?xml version="1.0" encoding="UTF-8" standalone="no"?>
<!-- Generator: Adobe Illustrator 16.0.0, SVG Export Plug-In . SVG Version: 6.00 Build 0)  -->

<svg
   version="1.1"
   x="0px"
   y="0px"
   width="512px"
   height="512px"
   viewBox="0 0 512 512"
   enable-background="new 0 0 512 512"
   xml:space="preserve"
   sodipodi:docname="sunrise.svg"
   inkscape:version="1.1.1 (3bf5ae0d25, 2021-09-20)"
   id="svg850"
   xmlns:inkscape="http://www.inkscape.org/namespaces/inkscape"
   xmlns:sodipodi="http://sodipodi.sourceforge.net/DTD/sodipodi-0.dtd"
   xmlns="http://www.w3.org/2000/svg"
   xmlns:svg="http://www.w3.org/2000/svg"><defs
   id="defs921" /><sodipodi:namedview
   id="namedview919"
   pagecolor="#505050"
   bordercolor="#eeeeee"
   borderopacity="1"
   inkscape:pageshadow="0"
   inkscape:pageopacity="0"
   inkscape:pagecheckerboard="0"
   showgrid="false"
   inkscape:zoom="1.5292969"
   inkscape:cx="256.32694"
   inkscape:cy="256"
   inkscape:window-width="1920"
   inkscape:window-height="1017"
   inkscape:window-x="1912"
   inkscape:window-y="-8"
   inkscape:window-maximized="1"
   inkscape:current-layer="sunrise" />
<g
   id="sunrise">
	<path
   fill="#F6BB42"
   d="M96.006,282.651H32.008c-5.891,0-10.664,4.781-10.664,10.688c0,5.875,4.773,10.656,10.664,10.656h63.998   c5.89,0,10.663-4.781,10.663-10.656C106.669,287.433,101.896,282.651,96.006,282.651z"
   id="path899"
   style="fill:#ffc106;fill-opacity:1" />
	<path
   fill="#F6BB42"
   d="M479.993,282.651h-63.997c-5.891,0-10.656,4.781-10.656,10.672s4.766,10.672,10.656,10.672h63.997   c5.891,0,10.656-4.781,10.656-10.656C490.649,287.433,485.884,282.651,479.993,282.651z"
   id="path901"
   style="fill:#ffc106;fill-opacity:1" />
	<path
   fill="#FFCE54"
   d="M406.84,127.398l-45.25,45.257c-4.155,4.164-4.155,10.914,0,15.077c4.156,4.172,10.922,4.172,15.094,0   l45.249-45.248c4.156-4.164,4.156-10.922,0-15.086C417.777,123.234,411.012,123.234,406.84,127.398z"
   id="path903"
   style="fill:#ffc106;fill-opacity:1" />
	<path
   fill="#F6BB42"
   d="M245.336,69.338v63.998c0,5.891,4.773,10.664,10.664,10.664s10.664-4.773,10.664-10.664V69.338   c0-5.89-4.773-10.671-10.664-10.671S245.336,63.448,245.336,69.338z"
   id="path905"
   style="fill:#ffc106;fill-opacity:1" />
	<path
   fill="#FFCE54"
   d="M90.076,142.484l45.248,45.256c4.164,4.164,10.922,4.164,15.086,0c4.164-4.163,4.164-10.921,0-15.085   l-45.257-45.257c-4.164-4.164-10.913-4.164-15.077,0C85.904,131.563,85.904,138.32,90.076,142.484z"
   id="path907"
   style="fill:#ffc106;fill-opacity:1" />
	<path
   fill="#FFCE54"
   d="M146.434,335.993c-5.305-13.562-7.984-27.89-7.984-42.654c0-64.826,52.732-117.559,117.551-117.559   c64.812,0,117.559,52.732,117.559,117.559c0,14.765-2.688,29.093-8,42.654H146.434z"
   id="path909"
   style="fill:#ffc106;fill-opacity:1" />
	<path
   fill="#F6BB42"
   d="M256,165.108c-70.811,0-128.215,57.405-128.215,128.23c0,19.03,4.148,37.076,11.586,53.311h233.25   c7.438-16.234,11.594-34.28,11.594-53.311C384.215,222.514,326.811,165.108,256,165.108z M358.028,325.337H153.98   c-3.234-10.296-4.867-21.014-4.867-31.998c0-28.562,11.116-55.405,31.311-75.591c20.188-20.188,47.022-31.304,75.576-31.304   c28.562,0,55.39,11.116,75.576,31.304c20.202,20.186,31.311,47.029,31.311,75.591C362.887,304.323,361.246,315.041,358.028,325.337   z"
   id="path911"
   style="fill:#ffc106;fill-opacity:1" />
	<path
   fill="#ED5564"
   d="M286.171,393.741l-22.632-22.624l0,0c-1.938-1.938-4.593-3.125-7.539-3.125l0,0   c-2.938,0-5.602,1.188-7.531,3.109l-0.008,0.016l-22.632,22.624c-4.164,4.156-4.164,10.906,0,15.094   c2.086,2.063,4.813,3.109,7.547,3.109c2.727,0,5.461-1.047,7.538-3.109l4.422-4.438v38.249c0,5.906,4.773,10.687,10.664,10.687l0,0   c5.891,0,10.664-4.78,10.664-10.687v-38.249l4.422,4.438c2.07,2.078,4.82,3.125,7.539,3.125c2.733,0,5.468-1.047,7.546-3.125   C290.343,404.663,290.343,397.897,286.171,393.741z"
   id="path913"
   style="fill:#ff2a2a" />
	<path
   fill="#656D78"
   d="M501.336,325.337H10.672c-5.891,0-10.664,4.766-10.664,10.656s4.773,10.656,10.664,10.656h490.664   c5.875,0,10.656-4.766,10.656-10.656S507.211,325.337,501.336,325.337z"
   id="path915" />
</g>
</svg>
