<?xml version="1.0" encoding="UTF-8" standalone="no"?>
<svg
   height="41.700001"
   style="clip-rule:evenodd;fill-rule:evenodd;image-rendering:optimizeQuality;shape-rendering:geometricPrecision;text-rendering:geometricPrecision"
   version="1.1"
   viewBox="0 0 41.700001 41.700001"
   width="41.700001"
   xml:space="preserve"
   id="svg848"
   sodipodi:docname="uv.svg"
   inkscape:version="1.1.1 (3bf5ae0d25, 2021-09-20)"
   xmlns:inkscape="http://www.inkscape.org/namespaces/inkscape"
   xmlns:sodipodi="http://sodipodi.sourceforge.net/DTD/sodipodi-0.dtd"
   xmlns="http://www.w3.org/2000/svg"
   xmlns:svg="http://www.w3.org/2000/svg"><sodipodi:namedview
     id="namedview850"
     pagecolor="#505050"
     bordercolor="#eeeeee"
     borderopacity="1"
     inkscape:pageshadow="0"
     inkscape:pageopacity="0"
     inkscape:pagecheckerboard="0"
     showgrid="false"
     inkscape:zoom="12.234375"
     inkscape:cx="10.993614"
     inkscape:cy="20.88378"
     inkscape:window-width="1920"
     inkscape:window-height="1001"
     inkscape:window-x="-9"
     inkscape:window-y="-9"
     inkscape:window-maximized="1"
     inkscape:current-layer="svg848"
     fit-margin-top="0"
     fit-margin-left="0"
     fit-margin-right="0"
     fit-margin-bottom="0" /><defs
     id="defs840"><style
       type="text/css"
       id="style838">
   <![CDATA[
    .str0 {stroke:#FFC106;stroke-width:2.5;stroke-linecap:round;stroke-linejoin:bevel;stroke-miterlimit:22.9256}
    .fil1 {fill:none}
    .fil0 {fill:#FFC106}
   ]]>
  </style></defs><g
     id="Layer_x0020_1"
     transform="translate(-11.15,-11.15)"><g
       id="_866321920"><circle
         class="fil0"
         r="22.969999"
         transform="matrix(0.543121,0.145529,-0.145529,0.543121,32.0002,31.9993)"
         id="circle842"
         cx="0"
         cy="0" /><path
         class="fil1 str0"
         d="m 32,12.4 c 0,1.52 0,2 0,2 m -9.8,0.63 c 0.76,1.32 1,1.73 1,1.73 m -8.17,5.44 c 1.32,0.76 1.73,1 1.73,1 M 12.4,32 c 1.53,0 2,0 2,0 m 0.63,9.8 c 1.32,-0.76 1.73,-1 1.73,-1 m 5.44,8.17 c 0.76,-1.32 1,-1.73 1,-1.73 M 32,51.6 c 0,-1.53 0,-2 0,-2 m 9.8,-0.63 c -0.76,-1.32 -1,-1.73 -1,-1.73 m 8.17,-5.44 c -1.32,-0.76 -1.73,-1 -1.73,-1 M 51.6,32 c -1.53,0 -2,0 -2,0 m -0.63,-9.8 c -1.32,0.76 -1.73,1 -1.73,1 M 41.8,15.03 c -0.76,1.32 -1,1.73 -1,1.73"
         id="path844" /></g></g><path
     class="cls-3"
     d="m 13.782605,16.138844 v 5.950001 c 0,1.78 0.67,2.68 1.87,2.68 1.2,0 1.9,-0.86 1.9,-2.68 v -5.95 h 2.33 v 5.79 c 0,3.19 -1.61,4.700001 -4.3,4.700001 -2.69,0 -4.14,-1.44 -4.14,-4.73 v -5.76 z"
     id="path23126"
     style="fill:#ffffff" /><path
     class="cls-3"
     d="m 24.342605,26.548845 -3.35,-10.33 h 2.6 l 1.26,4.37 c 0.35,1.23 0.67,2.410001 0.92,3.69 v 0 c 0.26,-1.24 0.58,-2.47 0.93,-3.65 l 1.32,-4.41 h 2.48 l -3.44,10.33 z"
     id="path23128"
     style="fill:#ffffff" /></svg>
